<svg width="2218" height="886" viewBox="0 0 2218 886" fill="none" xmlns="http://www.w3.org/2000/svg">
<path d="M115.703 80.1094H178.203L79.9609 368H23.125L-74.1406 80.1094H-9.88281L52.6172 298.664L115.703 80.1094ZM269.023 368H209.258V80.1094H269.023V368ZM368.828 279.133C370.651 292.284 374.232 302.115 379.57 308.625C389.336 320.474 406.068 326.398 429.766 326.398C443.958 326.398 455.482 324.836 464.336 321.711C481.133 315.721 489.531 304.589 489.531 288.312C489.531 278.807 485.365 271.451 477.031 266.242C468.698 261.164 455.612 256.672 437.773 252.766L407.305 245.93C377.357 239.159 356.654 231.802 345.195 223.859C325.794 210.578 316.094 189.81 316.094 161.555C316.094 135.773 325.469 114.354 344.219 97.2969C362.969 80.2396 390.508 71.7109 426.836 71.7109C457.174 71.7109 483.021 79.7839 504.375 95.9297C525.859 111.945 537.122 135.253 538.164 165.852H480.352C479.31 148.534 471.758 136.229 457.695 128.938C448.32 124.12 436.667 121.711 422.734 121.711C407.24 121.711 394.87 124.836 385.625 131.086C376.38 137.336 371.758 146.06 371.758 157.258C371.758 167.544 376.315 175.227 385.43 180.305C391.289 183.69 403.789 187.661 422.93 192.219L472.539 204.133C494.284 209.341 510.69 216.307 521.758 225.031C538.945 238.573 547.539 258.169 547.539 283.82C547.539 310.122 537.448 331.997 517.266 349.445C497.214 366.763 468.828 375.422 432.109 375.422C394.609 375.422 365.117 366.893 343.633 349.836C322.148 332.648 311.406 309.081 311.406 279.133H368.828ZM647.148 368H587.383V80.1094H647.148V368ZM830.742 325.031C854.57 325.031 873.451 316.242 887.383 298.664C901.445 281.086 908.477 256.086 908.477 223.664C908.477 191.372 901.445 166.438 887.383 148.859C873.451 131.151 854.57 122.297 830.742 122.297C806.914 122.297 787.904 131.086 773.711 148.664C759.518 166.242 752.422 191.242 752.422 223.664C752.422 256.086 759.518 281.086 773.711 298.664C787.904 316.242 806.914 325.031 830.742 325.031ZM968.633 223.664C968.633 275.357 954.115 314.94 925.078 342.414C903.333 364.81 871.888 376.008 830.742 376.008C789.596 376.008 758.151 364.81 736.406 342.414C707.24 314.94 692.656 275.357 692.656 223.664C692.656 170.93 707.24 131.346 736.406 104.914C758.151 82.5182 789.596 71.3203 830.742 71.3203C871.888 71.3203 903.333 82.5182 925.078 104.914C954.115 131.346 968.633 170.93 968.633 223.664ZM1013.75 80.1094H1076.84L1191.48 281.086V80.1094H1247.54V368H1187.38L1069.8 163.508V368H1013.75V80.1094Z" fill="#0F0F0F"/>
<path d="M1225.7 579.109H1288.2L1189.96 867H1133.12L1035.86 579.109H1100.12L1162.62 797.664L1225.7 579.109ZM1379.02 867H1319.26V579.109H1379.02V867ZM1478.83 778.133C1480.65 791.284 1484.23 801.115 1489.57 807.625C1499.34 819.474 1516.07 825.398 1539.77 825.398C1553.96 825.398 1565.48 823.836 1574.34 820.711C1591.13 814.721 1599.53 803.589 1599.53 787.312C1599.53 777.807 1595.36 770.451 1587.03 765.242C1578.7 760.164 1565.61 755.672 1547.77 751.766L1517.3 744.93C1487.36 738.159 1466.65 730.802 1455.2 722.859C1435.79 709.578 1426.09 688.81 1426.09 660.555C1426.09 634.773 1435.47 613.354 1454.22 596.297C1472.97 579.24 1500.51 570.711 1536.84 570.711C1567.17 570.711 1593.02 578.784 1614.38 594.93C1635.86 610.945 1647.12 634.253 1648.16 664.852H1590.35C1589.31 647.534 1581.76 635.229 1567.7 627.938C1558.32 623.12 1546.67 620.711 1532.73 620.711C1517.24 620.711 1504.87 623.836 1495.62 630.086C1486.38 636.336 1481.76 645.06 1481.76 656.258C1481.76 666.544 1486.32 674.227 1495.43 679.305C1501.29 682.69 1513.79 686.661 1532.93 691.219L1582.54 703.133C1604.28 708.341 1620.69 715.307 1631.76 724.031C1648.95 737.573 1657.54 757.169 1657.54 782.82C1657.54 809.122 1647.45 830.997 1627.27 848.445C1607.21 865.763 1578.83 874.422 1542.11 874.422C1504.61 874.422 1475.12 865.893 1453.63 848.836C1432.15 831.648 1421.41 808.081 1421.41 778.133H1478.83ZM1757.15 867H1697.38V579.109H1757.15V867ZM1940.74 824.031C1964.57 824.031 1983.45 815.242 1997.38 797.664C2011.45 780.086 2018.48 755.086 2018.48 722.664C2018.48 690.372 2011.45 665.438 1997.38 647.859C1983.45 630.151 1964.57 621.297 1940.74 621.297C1916.91 621.297 1897.9 630.086 1883.71 647.664C1869.52 665.242 1862.42 690.242 1862.42 722.664C1862.42 755.086 1869.52 780.086 1883.71 797.664C1897.9 815.242 1916.91 824.031 1940.74 824.031ZM2078.63 722.664C2078.63 774.357 2064.11 813.94 2035.08 841.414C2013.33 863.81 1981.89 875.008 1940.74 875.008C1899.6 875.008 1868.15 863.81 1846.41 841.414C1817.24 813.94 1802.66 774.357 1802.66 722.664C1802.66 669.93 1817.24 630.346 1846.41 603.914C1868.15 581.518 1899.6 570.32 1940.74 570.32C1981.89 570.32 2013.33 581.518 2035.08 603.914C2064.11 630.346 2078.63 669.93 2078.63 722.664ZM2123.75 579.109H2186.84L2301.48 780.086V579.109H2357.54V867H2297.38L2179.8 662.508V867H2123.75V579.109Z" fill="#0F0F0F"/>
</svg>
